# xmcd CD database file
#
# Track frame offsets:
#	150
#	35159
#	69181
#	89985
#	104493
#	134731
#	177904
#	210069
#	240007
#	268927
#	293716
#	314679
#
# Disc length: 4408 seconds
#
# Revision: 0
# Processed by: cddbd v1.5.1PL0 Copyright (c) Steve Scherf et al.
# Submitted via: CDex 1.51
#
DISCID=b411360c
DTITLE=Ultrabass - Planet SYS
DYEAR=1995
DGENRE=New Age
TTITLE0=The Faith Of The Sheep
TTITLE1=Under Ancient Skies
TTITLE2=At The Shores Of Samsara
TTITLE3=The End Of Fear
TTITLE4=A Journey Into Light
TTITLE5=The Silent Sun, The Quiet Earth
TTITLE6=The Ion Wales
TTITLE7=A Garden Of Hope
TTITLE8=Prayer Of The Holy Heart
TTITLE9=The Face Of The Sleep
TTITLE10=Elegy
TTITLE11=Gyatei, Gyatei
EXTD=YEAR: 1995
EXTT0=
EXTT1=
EXTT2=
EXTT3=
EXTT4=
EXTT5=
EXTT6=
EXTT7=
EXTT8=
EXTT9=
EXTT10=
EXTT11=
PLAYORDER=
